<svg width="1607" height="1142" viewBox="0 0 1607 1142" fill="none" xmlns="http://www.w3.org/2000/svg">
<rect x="1.61414" width="1604.53" height="1141" fill="white"/>
<path opacity="0.2" d="M1319.46 490.081C1408.06 261.688 1574 502.884 1606.15 630.231V1141H0.5V586.628C47.6625 633.345 154.282 707.469 203.458 630.231C264.928 533.683 340.706 445.44 431.322 747.542C521.937 1049.64 675.613 670.719 773.647 490.081C871.682 309.443 993.562 786.991 1100.08 630.231C1206.59 473.47 1208.71 775.572 1319.46 490.081Z" fill="url(#paint0_linear_3908_669)" stroke="#5C5656"/>
<path opacity="0.2" d="M219.452 434.612C126.3 186.756 35.4133 401.189 1.61414 539.387V1141H1606.15V539.387C1556.56 590.085 1444.47 670.525 1392.77 586.705C1328.14 481.93 1248.47 386.167 1153.2 714.012C1057.93 1041.86 896.363 630.643 793.294 434.612C690.225 238.58 562.086 756.824 450.103 586.705C338.12 416.586 335.891 744.431 219.452 434.612Z" fill="url(#paint1_linear_3908_669)" fill-opacity="0.5" stroke="#5C5656"/>
<defs>
<linearGradient id="paint0_linear_3908_669" x1="1526.66" y1="702.901" x2="0.491243" y2="705.065" gradientUnits="userSpaceOnUse">
<stop stop-opacity="0.5"/>
<stop offset="1" stop-color="white" stop-opacity="0"/>
</linearGradient>
<linearGradient id="paint1_linear_3908_669" x1="1.61414" y1="665.568" x2="1606.15" y2="667.772" gradientUnits="userSpaceOnUse">
<stop/>
<stop offset="1" stop-color="white" stop-opacity="0"/>
</linearGradient>
</defs>
</svg>
