<svg width="357" height="220" viewBox="0 0 357 220" fill="none" xmlns="http://www.w3.org/2000/svg">
<g filter="url(#filter0_d_3908_735)">
<circle cx="247.409" cy="103.194" r="97.0635" fill="url(#paint0_linear_3908_735)" stroke="#911DAC" stroke-width="1.25846"/>
<circle cx="247.409" cy="103.194" r="92.4842" fill="url(#paint1_linear_3908_735)" stroke="#AF1AAC" stroke-width="1.25846"/>
<g filter="url(#filter1_i_3908_735)">
<circle cx="247.409" cy="101.667" r="82.4283" fill="url(#paint2_linear_3908_735)"/>
</g>
<circle cx="247.409" cy="101.667" r="82.1136" stroke="#7720AA" stroke-width="0.629229"/>
</g>
<path d="M210.774 95.3062H219.368L216.243 98.4312H210.774C210.128 98.4312 209.576 98.6603 209.118 99.1187C208.659 99.577 208.43 100.129 208.43 100.775C208.43 101.421 208.659 101.973 209.118 102.431C209.576 102.889 210.128 103.119 210.774 103.119H214.68V102.337H210.774V99.2124H217.805V106.244H210.774C209.264 106.244 207.975 105.71 206.907 104.642C205.839 103.574 205.305 102.285 205.305 100.775C205.305 99.2645 205.839 97.9754 206.907 96.9077C207.975 95.84 209.264 95.3062 210.774 95.3062ZM221.712 103.119H231.087V106.244H218.587V95.3062H232.649L229.524 98.4312H221.712V99.2124H229.524V102.337H221.712V103.119ZM241.243 101.689V94.1343L244.368 97.2593V106.244H241.376L234.993 99.8608V107.416L231.868 104.291V95.3062H234.86L241.243 101.689ZM248.274 103.119H257.649V106.244H245.149V95.3062H259.212L256.087 98.4312H248.274V99.2124H256.087V102.337H248.274V103.119ZM272.493 95.3062L269.368 98.4312H261.946C261.837 98.4312 261.743 98.4702 261.665 98.5483C261.592 98.6213 261.555 98.7124 261.555 98.8218C261.555 98.9312 261.592 99.0249 261.665 99.103C261.743 99.1759 261.837 99.2124 261.946 99.2124H267.415C268.383 99.2124 269.212 99.5562 269.899 100.244C270.587 100.931 270.93 101.759 270.93 102.728C270.93 103.697 270.587 104.525 269.899 105.212C269.212 105.9 268.383 106.244 267.415 106.244H256.868L259.993 103.119H267.415C267.524 103.119 267.615 103.082 267.688 103.009C267.766 102.931 267.805 102.837 267.805 102.728C267.805 102.619 267.766 102.528 267.688 102.455C267.615 102.376 267.524 102.337 267.415 102.337H261.946C260.977 102.337 260.149 101.994 259.462 101.306C258.774 100.619 258.43 99.7905 258.43 98.8218C258.43 97.853 258.774 97.0249 259.462 96.3374C260.149 95.6499 260.977 95.3062 261.946 95.3062H272.493ZM274.837 106.244H271.712V97.2593L274.837 94.1343V106.244ZM289.68 95.3062L286.555 98.4312H279.133C279.024 98.4312 278.93 98.4702 278.852 98.5483C278.779 98.6213 278.743 98.7124 278.743 98.8218C278.743 98.9312 278.779 99.0249 278.852 99.103C278.93 99.1759 279.024 99.2124 279.133 99.2124H284.602C285.571 99.2124 286.399 99.5562 287.087 100.244C287.774 100.931 288.118 101.759 288.118 102.728C288.118 103.697 287.774 104.525 287.087 105.212C286.399 105.9 285.571 106.244 284.602 106.244H274.055L277.18 103.119H284.602C284.712 103.119 284.803 103.082 284.876 103.009C284.954 102.931 284.993 102.837 284.993 102.728C284.993 102.619 284.954 102.528 284.876 102.455C284.803 102.376 284.712 102.337 284.602 102.337H279.133C278.165 102.337 277.337 101.994 276.649 101.306C275.962 100.619 275.618 99.7905 275.618 98.8218C275.618 97.853 275.962 97.0249 276.649 96.3374C277.337 95.6499 278.165 95.3062 279.133 95.3062H289.68Z" fill="white"/>
<g filter="url(#filter2_i_3908_735)">
<circle cx="103.195" cy="103.195" r="103.195" fill="url(#paint3_linear_3908_735)"/>
</g>
<circle cx="103.195" cy="103.195" r="102.862" stroke="#FF46FB" stroke-width="0.664665"/>
<circle cx="103.194" cy="103.194" r="97.6926" fill="url(#paint4_linear_3908_735)" stroke="#AF1AAC" stroke-width="1.32933"/>
<g filter="url(#filter3_i_3908_735)">
<circle cx="103.195" cy="101.582" r="87.0704" fill="url(#paint5_linear_3908_735)"/>
</g>
<circle cx="103.195" cy="101.582" r="86.738" stroke="#FF46FB" stroke-width="0.664665"/>
<path d="M68.3209 101.669V113.001L63.6334 108.314V94.8374H68.1217L73.0084 99.7241L77.8951 94.8374H82.3834V111.244H77.6959V101.669L73.0084 106.357L68.3209 101.669ZM88.2428 106.556H102.305V111.244H83.5553V94.8374H104.649L99.9615 99.5249H88.2428V100.697H99.9615V105.384H88.2428V106.556ZM124.571 94.8374L112.653 106.556H122.227V111.244H101.133L113.051 99.5249H103.477V94.8374H124.571ZM131.602 111.244C129.337 111.244 127.403 110.443 125.801 108.841C124.2 107.24 123.399 105.306 123.399 103.041C123.399 100.775 124.2 98.8413 125.801 97.2397C127.403 95.6382 129.337 94.8374 131.602 94.8374H133.946C136.212 94.8374 138.145 95.6382 139.747 97.2397C141.348 98.8413 142.149 100.775 142.149 103.041C142.149 105.306 141.348 107.24 139.747 108.841C138.145 110.443 136.212 111.244 133.946 111.244H131.602ZM131.602 99.5249C130.633 99.5249 129.805 99.8687 129.118 100.556C128.43 101.244 128.087 102.072 128.087 103.041C128.087 104.009 128.43 104.837 129.118 105.525C129.805 106.212 130.633 106.556 131.602 106.556H133.946C134.915 106.556 135.743 106.212 136.43 105.525C137.118 104.837 137.462 104.009 137.462 103.041C137.462 102.072 137.118 101.244 136.43 100.556C135.743 99.8687 134.915 99.5249 133.946 99.5249H131.602Z" fill="white"/>
<defs>
<filter id="filter0_d_3908_735" x="138.728" y="1.83865" width="217.362" height="217.363" filterUnits="userSpaceOnUse" color-interpolation-filters="sRGB">
<feFlood flood-opacity="0" result="BackgroundImageFix"/>
<feColorMatrix in="SourceAlpha" type="matrix" values="0 0 0 0 0 0 0 0 0 0 0 0 0 0 0 0 0 0 127 0" result="hardAlpha"/>
<feOffset dy="7.32563"/>
<feGaussianBlur stdDeviation="5.49422"/>
<feComposite in2="hardAlpha" operator="out"/>
<feColorMatrix type="matrix" values="0 0 0 0 0 0 0 0 0 0 0 0 0 0 0 0 0 0 0.25 0"/>
<feBlend mode="normal" in2="BackgroundImageFix" result="effect1_dropShadow_3908_735"/>
<feBlend mode="normal" in="SourceGraphic" in2="effect1_dropShadow_3908_735" result="shape"/>
</filter>
<filter id="filter1_i_3908_735" x="164.981" y="16.7219" width="167.373" height="167.373" filterUnits="userSpaceOnUse" color-interpolation-filters="sRGB">
<feFlood flood-opacity="0" result="BackgroundImageFix"/>
<feBlend mode="normal" in="SourceGraphic" in2="BackgroundImageFix" result="shape"/>
<feColorMatrix in="SourceAlpha" type="matrix" values="0 0 0 0 0 0 0 0 0 0 0 0 0 0 0 0 0 0 127 0" result="hardAlpha"/>
<feOffset dx="5.03383" dy="-6.29229"/>
<feGaussianBlur stdDeviation="1.25846"/>
<feComposite in2="hardAlpha" operator="arithmetic" k2="-1" k3="1"/>
<feColorMatrix type="matrix" values="0 0 0 0 0 0 0 0 0 0 0 0 0 0 0 0 0 0 0.25 0"/>
<feBlend mode="normal" in2="shape" result="effect1_innerShadow_3908_735"/>
</filter>
<filter id="filter2_i_3908_735" x="0" y="-2.65866" width="209.048" height="209.048" filterUnits="userSpaceOnUse" color-interpolation-filters="sRGB">
<feFlood flood-opacity="0" result="BackgroundImageFix"/>
<feBlend mode="normal" in="SourceGraphic" in2="BackgroundImageFix" result="shape"/>
<feColorMatrix in="SourceAlpha" type="matrix" values="0 0 0 0 0 0 0 0 0 0 0 0 0 0 0 0 0 0 127 0" result="hardAlpha"/>
<feOffset dx="5.31732" dy="-6.64665"/>
<feGaussianBlur stdDeviation="1.32933"/>
<feComposite in2="hardAlpha" operator="arithmetic" k2="-1" k3="1"/>
<feColorMatrix type="matrix" values="0 0 0 0 0 0 0 0 0 0 0 0 0 0 0 0 0 0 0.25 0"/>
<feBlend mode="normal" in2="shape" result="effect1_innerShadow_3908_735"/>
</filter>
<filter id="filter3_i_3908_735" x="16.1241" y="11.8531" width="176.799" height="176.799" filterUnits="userSpaceOnUse" color-interpolation-filters="sRGB">
<feFlood flood-opacity="0" result="BackgroundImageFix"/>
<feBlend mode="normal" in="SourceGraphic" in2="BackgroundImageFix" result="shape"/>
<feColorMatrix in="SourceAlpha" type="matrix" values="0 0 0 0 0 0 0 0 0 0 0 0 0 0 0 0 0 0 127 0" result="hardAlpha"/>
<feOffset dx="5.31732" dy="-6.64665"/>
<feGaussianBlur stdDeviation="1.32933"/>
<feComposite in2="hardAlpha" operator="arithmetic" k2="-1" k3="1"/>
<feColorMatrix type="matrix" values="0 0 0 0 0 0 0 0 0 0 0 0 0 0 0 0 0 0 0.25 0"/>
<feBlend mode="normal" in2="shape" result="effect1_innerShadow_3908_735"/>
</filter>
<linearGradient id="paint0_linear_3908_735" x1="318.892" y1="22.1807" x2="185.899" y2="185.509" gradientUnits="userSpaceOnUse">
<stop stop-color="#AF1AAC"/>
<stop offset="0.552083" stop-color="#4A24AA"/>
<stop offset="1" stop-color="#AF1AAC"/>
</linearGradient>
<linearGradient id="paint1_linear_3908_735" x1="218.214" y1="9.99284" x2="263.13" y2="214.923" gradientUnits="userSpaceOnUse">
<stop/>
<stop offset="0.5" stop-color="#AF1AAC"/>
<stop offset="1"/>
</linearGradient>
<linearGradient id="paint2_linear_3908_735" x1="310.757" y1="30.6871" x2="195.51" y2="171.12" gradientUnits="userSpaceOnUse">
<stop stop-color="#7320AB"/>
<stop offset="0.505208" stop-color="#40033F"/>
<stop offset="1" stop-color="#7320AB"/>
</linearGradient>
<linearGradient id="paint3_linear_3908_735" x1="182.501" y1="14.3326" x2="38.2202" y2="190.145" gradientUnits="userSpaceOnUse">
<stop stop-color="#AF1AAC"/>
<stop offset="0.552083" stop-color="#7320AB"/>
<stop offset="1" stop-color="#AF1AAC"/>
</linearGradient>
<linearGradient id="paint4_linear_3908_735" x1="72.3547" y1="4.74424" x2="168.635" y2="186.253" gradientUnits="userSpaceOnUse">
<stop stop-color="#AF1AAC"/>
<stop offset="0.552083" stop-color="#FF68FC"/>
<stop offset="1" stop-color="#AF1AAC"/>
</linearGradient>
<linearGradient id="paint5_linear_3908_735" x1="170.11" y1="26.6048" x2="48.3724" y2="174.947" gradientUnits="userSpaceOnUse">
<stop stop-color="#AF1AAC"/>
<stop offset="0.552083" stop-color="#7320AB"/>
<stop offset="1" stop-color="#AF1AAC"/>
</linearGradient>
</defs>
</svg>
