<svg width="24" height="26" viewBox="0 0 24 26" fill="none" xmlns="http://www.w3.org/2000/svg">
<path fill-rule="evenodd" clip-rule="evenodd" d="M11.6667 0C5.22317 0 0 5.22317 0 11.6667C0 18.1102 5.22317 23.3333 11.6667 23.3333C18.1102 23.3333 23.3333 18.1102 23.3333 11.6667C23.3333 5.22317 18.1102 0 11.6667 0ZM11.6667 1.16667C11.6667 3.95144 10.5604 6.62216 8.59129 8.59129C6.62216 10.5604 3.95144 11.6667 1.16667 11.6667C3.95144 11.6667 6.62216 12.7729 8.59129 14.742C10.5604 16.7112 11.6667 19.3819 11.6667 22.1667C11.6667 19.3819 12.7729 16.7112 14.742 14.742C16.7112 12.7729 19.3819 11.6667 22.1667 11.6667C19.3819 11.6667 16.7112 10.5604 14.742 8.59129C12.7729 6.62216 11.6667 3.95144 11.6667 1.16667Z" fill="white"/>
</svg>
